# xmcd CD database file
#
# Track frame offsets:
#	150
#	16555
#	34297
#	53875
#	72100
#	90270
#	102862
#	119730
#	133667
#	155117
#	173738
#	186770
#	200045
#	224841
#	240216
#
# Disc length: 3413 seconds
#
# Revision: 0
# Processed by: cddbd v1.5.2PL0 Copyright (c) Steve Scherf et al.
# Submitted via: CDex 1.50beta10
#
DISCID=d10d530f
DTITLE=Jazz-Iz-Christ - Jazz-Iz-Christ
DYEAR=2013
DGENRE=Jazz
TTITLE0=Fish Don't Scream
TTITLE1=End of Time
TTITLE2=Honeycharmed
TTITLE3=Arpeggio Burst
TTITLE4=Yerevan to Paris
TTITLE5=Scotch in China
TTITLE6=Distant Thing
TTITLE7=Song of Sand
TTITLE8=Garuna
TTITLE9=Balcony Chats
TTITLE10=Jinn
TTITLE11=Waitomo Caves
TTITLE12=Through Nights and Hopes
TTITLE13=Papa Blue
TTITLE14=Miso Soup
EXTD=YEAR: 2013
EXTT0=
EXTT1=
EXTT2=
EXTT3=
EXTT4=
EXTT5=
EXTT6=
EXTT7=
EXTT8=
EXTT9=
EXTT10=
EXTT11=
EXTT12=
EXTT13=
EXTT14=
PLAYORDER=
